<?xml version="1.0" encoding="utf-8"?>
<!-- Svg Vector Icons : http://www.onlinewebfonts.com/icon -->
<!DOCTYPE svg PUBLIC "-//W3C//DTD SVG 1.1//EN" "http://www.w3.org/Graphics/SVG/1.1/DTD/svg11.dtd">
<svg version="1.1" xmlns="http://www.w3.org/2000/svg" xmlns:xlink="http://www.w3.org/1999/xlink" x="0px" y="0px"
       viewBox="0 0 1000 1000" enable-background="new 0 0 1000 1000" xml:space="preserve">
       <metadata> Svg Vector Icons : http://www.onlinewebfonts.com/icon </metadata>
       <g>
              <g transform="matrix(1 0 0 -1 0 1920)">
                     <path d="M500,1632.1c-38.5,0-71.2,13.5-98.3,40.6s-40.6,59.8-40.6,98.3s13.5,71.2,40.6,98.3s59.9,40.6,98.3,40.6s71.2-13.5,98.3-40.6s40.6-59.8,40.6-98.3s-13.5-71.2-40.6-98.3S538.5,1632.1,500,1632.1z M500,1281.1c-38.5,0-71.2,13.5-98.3,40.6c-27.1,27.1-40.6,59.9-40.6,98.3s13.5,71.2,40.6,98.3s59.9,40.6,98.3,40.6s71.2-13.5,98.3-40.6s40.6-59.8,40.6-98.3s-13.5-71.2-40.6-98.3C571.2,1294.6,538.5,1281.1,500,1281.1z M500,930c-38.5,0-71.2,13.5-98.3,40.6c-27.1,27.1-40.6,59.8-40.6,98.3c0,38.5,13.5,71.2,40.6,98.3s59.9,40.6,98.3,40.6s71.2-13.5,98.3-40.6s40.6-59.8,40.6-98.3c0-38.5-13.5-71.2-40.6-98.3C571.2,943.5,538.5,930,500,930z"
                            fill="white" />
              </g>
       </g>
</svg>