<svg width="163" height="161" viewBox="0 0 163 161" fill="none" xmlns="http://www.w3.org/2000/svg">
       <path fill-rule="evenodd" clip-rule="evenodd"
              d="M46.8788 34.5239C28.4061 48.042 18.9744 70.2675 22.3678 92.2848C22.8132 95.176 24.1404 99.9937 25.3633 103.16C26.628 106.435 29.9226 112.511 31.9777 115.36C41.5573 128.639 56.5409 137.066 73.3227 138.611C81.6257 139.376 90.1372 138.404 98.248 135.764C105.995 133.242 114.939 128.077 120.975 122.64C132.222 112.51 139.438 98.704 141.034 84.2671C142.133 74.3174 140.51 63.9716 136.446 55.0354C134.831 51.4835 131.166 45.5923 128.806 42.7534C118.68 30.5725 104.493 23.4656 88.0919 22.3576C73.6554 21.3825 58.8744 25.7459 46.8788 34.5239ZM59.7261 29.2919C72.7352 23.6641 86.496 22.6167 99.6105 26.2567C110.864 29.38 119.87 35.1071 127.284 43.8552C128.896 45.7573 129.619 46.8493 132.093 51.1174C135.067 56.2484 135.703 57.6335 137.012 61.8232C139.415 69.5138 140.05 77.9538 138.838 86.0957C137.44 95.4927 133.397 104.963 127.408 112.875C120.148 122.466 109.6 129.939 97.7205 133.909C82.701 138.928 65.8018 137.596 51.9161 130.298C38.3445 123.165 28.1471 109.858 24.9401 95.0941C22.8052 85.2664 23.1817 76.472 26.1619 66.5573C31.0282 50.3674 43.808 36.1786 59.7261 29.2919ZM46.5811 68.8374C44.0461 71.7004 41.8182 76.6613 41.513 80.123C41.4274 81.0922 41.4381 81.8386 41.5366 81.7817C41.6353 81.7247 41.8643 80.9002 42.0455 79.9494C42.428 77.9444 43.4267 75.5359 44.5398 73.9346C45.6109 72.3935 49.0717 69.4223 50.5571 68.7686C52.9282 67.725 55.824 67.2832 58.1183 67.615C60.0386 67.8926 59.0963 67.1874 56.6732 66.5335C53.6256 65.7111 51.4612 65.8874 49.0304 67.1564C47.9016 67.7458 46.9996 68.3648 46.5811 68.8374ZM83.0672 47.7866C82.0625 48.9047 81.1395 50.617 80.6197 52.3276C80.1815 53.7693 79.975 55.6705 80.2487 55.7438C80.3233 55.7639 80.5527 55.3373 80.7585 54.7957C82.2837 50.781 85.24 48.1667 89.9253 46.6898C93.4461 45.5801 96.7961 45.6894 100.031 47.0198C101.825 47.7577 102.396 47.6873 101.057 46.8933C98.5442 45.403 93.5114 44.5266 89.3688 44.8577C87.7931 44.9837 87.2758 45.1434 85.6537 46.0049C84.4493 46.6444 83.5159 47.2876 83.0672 47.7866ZM52.6705 83.2564C50.9124 85.377 50.0256 88.3062 50.1557 91.5633C50.2175 93.1157 50.3433 93.6235 50.8563 94.3937C51.719 95.6883 52.2772 95.4478 52.8192 93.548C53.6025 90.8007 55.4786 88.5069 58.2405 86.9186C60.226 85.7772 63.0385 85.2096 65.7523 85.403C67.5012 85.5275 67.7219 85.4904 67.8389 85.051C68.0549 84.2399 66.7896 82.3814 65.4076 81.48C63.8423 80.4591 61.1522 79.7735 59.2476 79.9101C57.1611 80.0598 53.9777 81.6794 52.6705 83.2564ZM91.29 61.3754C90.791 62.0318 90.1601 63.0402 89.8881 63.6162C88.9953 65.5073 88.7769 68.4622 89.4073 70.1227C89.7286 70.9697 91.1742 72.5528 91.4703 72.3819C91.5647 72.3274 91.7759 71.7821 91.9398 71.1703C92.2922 69.8544 93.557 67.8509 94.9572 66.39C95.7133 65.6013 96.4613 65.0857 97.9805 64.3063C100.624 62.9503 103.151 62.5764 105.567 63.1833C107.391 63.6417 107.884 63.4481 107.608 62.3808C107.222 60.8903 104.034 58.9209 100.871 58.2193C98.1962 57.6259 96.6057 57.8521 94.0839 59.1849C92.4571 60.0448 92.0726 60.3464 91.29 61.3754ZM58.9625 81.8047C59.638 81.7322 60.7108 81.7493 61.3463 81.8432C62.5265 82.017 65.2286 83.0805 65.1582 83.3433C65.1367 83.4233 64.4463 83.5069 63.624 83.5293C61.7184 83.5809 58.8227 84.3896 57.211 85.3202C55.7683 86.1531 53.7561 88.1178 52.7216 89.7032C52.3296 90.3041 51.9702 90.7237 51.9231 90.6354C51.8759 90.5472 51.9091 89.9118 51.9968 89.2232C52.2092 87.5577 53.2229 85.2392 54.1252 84.3554C54.5263 83.9626 54.924 83.5483 55.0089 83.4347C55.3797 82.9393 57.8388 81.9253 58.9625 81.8047ZM96.6734 59.9393C97.4255 59.7322 98.5857 59.6061 99.252 59.6587C100.421 59.7515 103.031 60.467 102.97 60.6777C102.953 60.7345 101.964 60.9785 100.771 61.2201C96.1825 62.1501 93.5312 64.1599 91.1808 68.491C90.9438 68.9277 90.6976 69.1941 90.6336 69.0833C90.369 68.625 90.9946 65.3404 91.57 64.1648C92.6969 61.8632 94.1969 60.6212 96.6734 59.9393ZM68.5273 105.203C68.4295 105.775 68.9267 106.163 71.1424 107.242C74.787 109.017 79.2004 110.089 83.0415 110.132C87.547 110.182 90.3882 109.393 95.3906 106.702C98.5577 104.999 99.3107 104.506 101.049 102.998C103.603 100.781 104.89 99.3509 106.569 96.8623C109.129 93.0671 110.536 88.1161 110.261 83.8696C110.054 80.6707 109.293 80.4685 107.957 83.2574C106.105 87.1239 102.498 91.7349 98.9212 94.8106C97.5565 95.9838 96.1504 96.8994 92.3597 99.0832C88.1249 101.523 87.2388 101.958 85.1117 102.641C80.4811 104.127 75.2428 104.815 71.2168 104.466C69.2404 104.294 68.6548 104.455 68.5273 105.203ZM73.0477 105.88C76.3885 105.955 81.1313 105.279 84.3156 104.274C87.4612 103.281 89.0967 102.517 93.3342 100.064C96.7747 98.0722 98.06 97.2155 99.7189 95.8083C103.214 92.8437 106.247 89.1887 108.439 85.2989L109.163 84.0134L109.176 85.1478C109.24 90.5667 106.063 96.8871 100.916 101.583C98.63 103.668 91.913 107.48 89.3354 108.155C85.2115 109.234 80.3 109.14 76.1751 107.902C73.6433 107.142 71.0216 106.08 71.2918 105.924C71.3688 105.88 72.1589 105.86 73.0477 105.88Z"
              fill="white" />
</svg>